<svg width="24" height="25" viewBox="0 0 24 25" fill="none" xmlns="http://www.w3.org/2000/svg">
<g filter="url(#filter0_d)">
<path fill-rule="evenodd" clip-rule="evenodd" d="M15.8125 11.2762L19.7567 15.4843C20.0904 15.8403 20.0794 16.4079 19.7326 16.7502C19.5694 16.9114 19.3544 17 19.1278 17C18.8883 17 18.6649 16.9024 18.4988 16.7255L14.5246 12.4854C13.3961 13.299 12.0762 13.7275 10.6911 13.7275C7.0017 13.7275 4 10.6484 4 6.86374C4 3.07913 7.0017 0 10.6911 0C14.3806 0 17.3823 3.07913 17.3823 6.86374C17.3823 8.48359 16.8266 10.0396 15.8125 11.2762ZM15.6367 6.86374C15.6367 4.06632 13.4182 1.79054 10.6911 1.79054C7.96406 1.79054 5.74551 4.06632 5.74551 6.86374C5.74551 9.66117 7.96406 11.9369 10.6911 11.9369C13.4182 11.9369 15.6367 9.66117 15.6367 6.86374Z" fill="#929EAF"/>
</g>
<defs>
<filter id="filter0_d" x="0" y="0" width="24" height="25" filterUnits="userSpaceOnUse" color-interpolation-filters="sRGB">
<feFlood flood-opacity="0" result="BackgroundImageFix"/>
<feColorMatrix in="SourceAlpha" type="matrix" values="0 0 0 0 0 0 0 0 0 0 0 0 0 0 0 0 0 0 127 0"/>
<feOffset dy="4"/>
<feGaussianBlur stdDeviation="2"/>
<feColorMatrix type="matrix" values="0 0 0 0 0 0 0 0 0 0 0 0 0 0 0 0 0 0 0.25 0"/>
<feBlend mode="normal" in2="BackgroundImageFix" result="effect1_dropShadow"/>
<feBlend mode="normal" in="SourceGraphic" in2="effect1_dropShadow" result="shape"/>
</filter>
</defs>
</svg>
